<svg xmlns="http://www.w3.org/2000/svg" viewBox="0 0 1923.328 781.447">
  <defs>
    <style>
      .cls-1 {
        fill: #fff;
      }
    </style>
  </defs>
  <path id="Exclusion_1" data-name="Exclusion 1" class="cls-1" d="M7044.328-3270.553h-1923V-3931.08a366.38,366.38,0,0,0,14.864,38.917A204.221,204.221,0,0,0,5150.125-3866c5.681,8.808,11.343,15.28,16.829,19.237a208.442,208.442,0,0,1,26.8,22.807,157.642,157.642,0,0,1,19.158,23.559,136.21,136.21,0,0,1,12.633,24.066,138.158,138.158,0,0,1,7.22,24.329,163.579,163.579,0,0,1,2.918,24.347,219.247,219.247,0,0,1-.271,24.12c-1,15.956-3.37,31.527-5.664,46.585-3.539,23.233-6.882,45.177-4.361,64.2,1.347,10.161,4.246,18.762,8.865,26.3a59.145,59.145,0,0,0,9.033,11.292,73.112,73.112,0,0,0,12.8,9.9,318.482,318.482,0,0,1,39.448,14.607,160.69,160.69,0,0,1,27.733,15.805,82.021,82.021,0,0,1,17.455,16.725,50.757,50.757,0,0,1,8.61,17.366c4.167,15.708-.1,33.177-13.033,53.4-11.192,17.5-27.041,34.27-41.024,49.065l-.006.007c-9.176,9.708-17.843,18.879-23.545,26.6-6.307,8.542-8.453,14.573-6.754,18.979,1.975,5.122,9.315,8.109,22.443,9.132.846.066,1.806.1,2.853.1,19.774,0,71.744-11.713,131.92-25.276l.172-.039c10.333-2.329,21.02-4.737,31.749-7.132,33.467-7.471,72.42-15.963,107.582-22.307,37.815-6.823,65.532-10.14,84.734-10.14,8.948,0,16.1.744,21.272,2.212a22.193,22.193,0,0,1,6.608,2.925,9.552,9.552,0,0,1,3.574,4.28,9.409,9.409,0,0,1,.388,5.185,20.847,20.847,0,0,1-2.563,6.485c-2.783,4.854-7.757,10.64-14.785,17.2-10.45,9.754-17.853,18.409-22,25.725a31.2,31.2,0,0,0-3.778,9.672,13.988,13.988,0,0,0,.578,7.67c1.664,4.221,5.792,7.427,12.27,9.528,6.185,2.006,14.555,3.024,24.875,3.024,65.521,0,196.889-39.816,286.863-86.945,38.32-20.073,62.433-29.422,75.884-29.422,5.287,0,8.982,1.427,11.3,4.361,2.721,3.449,3.547,8.977,2.6,17.4-.857,7.62-3.109,17.034-5.494,27v.006l0,.011c-2.669,11.157-5.694,23.8-7.407,36.541-1.968,14.638-1.892,27.094.235,38.082a26.01,26.01,0,0,0,2.626,7.621,16.775,16.775,0,0,0,4.405,5.222,17.749,17.749,0,0,0,6.126,3,29.049,29.049,0,0,0,7.79.96c9.529,0,22.6-3.406,41.124-10.718,16.915-6.676,36.638-15.867,59.476-26.511,19.233-8.963,41.034-19.122,64.219-29.146,21.653-9.361,41.56-17.333,60.855-24.37,11.044-4.028,22.049-7.8,32.711-11.213,11.476-3.673,22.939-7.053,34.071-10.047,11.866-3.191,23.747-6.048,35.312-8.491,12.226-2.584,24.482-4.786,36.427-6.547,12.555-1.85,25.146-3.268,37.425-4.213,12.845-.989,25.731-1.491,38.3-1.491,5.425,0,10.894.093,16.254.277a271.066,271.066,0,0,1,36.248,3.929c11.907,2.025,24.752,4.8,39.268,8.479,27.038,6.856,55.138,15.648,84.887,24.955,58.242,18.221,118.466,37.063,174.548,42.158,4.408.4,8.889.6,13.316.6a150.741,150.741,0,0,0,19.49-1.279,160.4,160.4,0,0,0,18.728-3.613,185.492,185.492,0,0,0,34.895-12.9c19.5-9.444,38.887-22.613,57.637-39.139,7.371-6.5,14.655-13.531,21.648-20.9,5.6-5.9,11.03-12.038,16.141-18.235,8.755-10.617,13.519-17.718,13.566-17.788v166.261Zm-1923-660.533c-.208-.665-.324-1.044-.325-1.05V-4052l1713.386.447H5121.328v120.466Zm1923-120.411-209.941-.056h209.94v.055Z" transform="translate(-5121.001 4052)"/>
</svg>
